# xmcd
#
# Track frame offsets: 
#        150
#        15146
#        29527
#        42849
#        56376
#        70426
#        83908
#        99695
#        114438
#        132972
#        146234
#        163053
#        179798
#        195698
#        210234
#        222516
#
# Disc length: 3242 seconds
#
# Revision: 0
# Processed by: cddbd v1.5.2PL0 Copyright (c) Steve Scherf et al.
# Submitted via: ExactAudioCopy v0.99pb5
#
DISCID=ea0ca810
DTITLE=Bo Göran Svensson - Guldplattan
DYEAR=2009
DGENRE=Country
TTITLE0=Om Tunnan Ska Stå Kvar
TTITLE1=Nu Är Elden Lös
TTITLE2=Det Var Synd
TTITLE3=Jag Har Två Små
TTITLE4=Gösta Spelman
TTITLE5=Passa Dig Ofelia
TTITLE6=Bäst På Hemmaplan
TTITLE7=Långt Långt Därifrån
TTITLE8=Gun I Östersund
TTITLE9=Du Skulle Köpt En Labrador
TTITLE10=Men Om Utifall
TTITLE11=Loretta
TTITLE12=Min Sockerbagare
TTITLE13=Till Kerstin
TTITLE14=I Min Brevlåda
TTITLE15=Två Pina Coladas
EXTD=
EXTT0=
EXTT1=
EXTT2=
EXTT3=
EXTT4=
EXTT5=
EXTT6=
EXTT7=
EXTT8=
EXTT9=
EXTT10=
EXTT11=
EXTT12=
EXTT13=
EXTT14=
EXTT15=
PLAYORDER=
